<svg xmlns="http://www.w3.org/2000/svg" viewBox="0 0 128 128" fill="#00a500">
  <path transform="translate(52 14)" d="M0.80 69.84L0.80 69.84Q0.80 69.09 0.80 68.39Q0.80 67.69 0.70 66.94L0.70 66.94Q-5.86 70.31-10.97 73.31Q-16.08 76.31-19.59 78.84Q-23.11 81.38-24.94 83.39Q-26.77 85.41-26.77 86.63L-26.77 86.63Q-26.77 89.06-24.94 90.70Q-23.11 92.34-19.83 92.34L-19.83 92.34Q-17.30 92.34-13.83 90.23Q-10.36 88.13-7.17 84.84Q-3.98 81.56-1.69 77.58Q0.61 73.59 0.80 69.84ZM57.61 17.34L57.61 17.34Q58.36 16.69 59.16 16.55Q59.95 16.41 60.70 16.31L60.70 16.31Q62.86 16.31 64.55 18Q66.23 19.69 66.23 21.66L66.23 21.66Q66.23 22.50 65.91 23.16Q65.58 23.81 64.92 24.56L64.92 24.56Q61.92 27.94 57.75 31.41Q53.58 34.88 47.91 38.81Q42.23 42.75 34.83 47.34Q27.42 51.94 17.86 57.56L17.86 57.56Q17.86 58.13 17.91 58.73Q17.95 59.34 17.95 60L17.95 60Q17.95 64.78 16.13 69.84Q14.30 74.91 11.16 79.78Q8.02 84.66 3.84 89.02Q-0.33 93.38-4.97 96.66Q-9.61 99.94-14.48 101.86Q-19.36 103.78-23.86 103.78Q-28.36 103.78-32.06 102.70Q-35.77 101.63-38.39 99.61Q-41.02 97.59-42.42 94.83Q-43.83 92.06-43.83 88.69L-43.83 88.69Q-43.83 85.59-41.58 82.03Q-39.33 78.47-34.45 74.39Q-29.58 70.31-21.89 65.58Q-14.20 60.84-3.42 55.31L-3.42 55.31Q-5.02 54.66-6.75 54.56Q-8.48 54.47-10.08 54.47L-10.08 54.47Q-12.23 54.47-15.05 54.56Q-17.86 54.66-20.77 54.66L-20.77 54.66Q-23.02 54.66-25.08 54.56Q-27.14 54.47-28.78 54.19Q-30.42 53.91-31.36 53.30Q-32.30 52.69-32.30 51.66L-32.30 51.66Q-32.30 49.69-31.27 47.58Q-30.23 45.47-27.47 42.52Q-24.70 39.56-19.97 35.39Q-15.23 31.22-7.83 25.22L-7.83 25.22L12.14 10.50Q11.48 10.50 1.92 10.78Q-7.64 11.06-24.80 11.06L-24.80 11.06Q-27.23 11.06-28.36 9.75Q-29.48 8.44-29.48 7.22L-29.48 7.22Q-29.39 5.81-28.88 4.13Q-28.36 2.44-27.42 0.98Q-26.48-0.47-25.13-1.50Q-23.77-2.53-21.98-2.53L-21.98-2.53Q-20.11-2.53-15.89-2.58Q-11.67-2.63-6.33-2.63Q-0.98-2.63 4.83-2.72Q10.64-2.81 15.70-2.81Q20.77-2.81 24.42-2.86Q28.08-2.91 29.20-2.91L29.20-2.91Q30.89-2.91 31.92-2.34Q32.95-1.78 33.52-0.94Q34.08-0.09 34.27 0.89Q34.45 1.88 34.45 2.72L34.45 2.72Q34.45 4.41 33.75 6.09Q33.05 7.78 31.50 9.66Q29.95 11.53 27.42 13.64Q24.89 15.75 21.33 18.38L21.33 18.38Q20.67 18.84 19.03 20.06Q17.39 21.28 15.14 22.92Q12.89 24.56 10.22 26.53Q7.55 28.50 4.92 30.47L4.92 30.47Q-1.36 35.06-8.86 40.59L-8.86 40.59L-6.89 40.59Q-0.89 40.59 4.36 42.28Q9.61 43.97 13.17 46.88L13.17 46.88Q21.14 42.47 27.75 38.53Q34.36 34.59 39.75 30.98Q45.14 27.38 49.55 24Q53.95 20.63 57.61 17.34Z" />
</svg>